<svg version="1.1" id="Layer_1" xmlns="http://www.w3.org/2000/svg" xmlns:xlink="http://www.w3.org/1999/xlink" x="0px" y="0px"
	 width="100%" viewBox="0 0 800 534" enable-background="new 0 0 800 534" xml:space="preserve">
<path fill="#FFFEFE" opacity="1.000000" stroke="none" 
	d="
M454.000000,535.000000 
	C418.979095,535.000000 383.958221,535.000000 348.383636,534.700134 
	C347.754181,534.206787 347.678375,534.013306 347.668732,533.367493 
	C347.734863,462.456879 347.734863,391.998566 347.734863,321.000000 
	C231.881729,321.000000 116.440865,321.000000 1.000000,321.000000 
	C1.000000,285.645782 1.000000,250.291550 1.458127,214.575699 
	C117.018005,214.214081 232.119751,214.214081 347.755005,214.214081 
	C347.755005,211.843048 347.755005,209.885071 347.755005,207.927094 
	C347.755005,140.942657 347.752899,73.958214 347.765320,6.973775 
	C347.765686,4.982502 347.918365,2.991258 348.000000,1.000000 
	C383.020905,1.000000 418.041779,1.000000 453.633057,1.459258 
	C454.203430,72.519531 454.203430,143.120544 454.203430,214.241440 
	C456.703796,214.241440 458.662231,214.241455 460.620697,214.241455 
	C572.255371,214.241455 683.890015,214.242584 795.524719,214.231384 
	C797.349792,214.231201 799.174927,214.080490 801.000000,214.000000 
	C801.000000,249.354233 801.000000,284.708466 800.531372,320.531891 
	C684.945557,321.001099 569.828491,321.001099 454.245697,321.001099 
	C454.245697,323.257477 454.245728,325.047668 454.245728,326.837860 
	C454.245697,384.003632 454.237000,441.169373 454.252747,498.335144 
	C454.256012,510.164825 454.350220,521.994507 454.288055,534.113403 
	C454.115723,534.601807 454.057861,534.800903 454.000000,535.000000 
M426.907410,247.503540 
	C426.735687,247.165192 426.461029,247.014084 425.967865,246.197174 
	C425.942902,245.036499 425.917938,243.875839 426.259583,242.218338 
	C427.473389,240.850555 428.687164,239.482758 430.587097,237.715530 
	C430.421844,237.137680 430.256622,236.559830 431.159119,235.394104 
	C431.565369,235.400070 431.971588,235.406036 433.116608,235.859360 
	C433.399841,235.910828 433.683105,235.962311 434.745636,236.012848 
	C438.759094,237.240875 442.772583,238.468918 447.289368,239.850952 
	C444.679016,235.464859 448.652588,236.840469 451.133179,236.126968 
	C445.769379,231.890610 438.742920,231.675323 435.884003,225.002991 
	C434.951813,222.827377 430.139832,222.280457 427.073608,221.060776 
	C422.432373,219.214600 415.902588,222.026123 413.150879,215.396027 
	C412.998749,215.029404 411.941742,214.897736 411.304688,214.894577 
	C404.340179,214.859985 397.374786,214.828644 390.411530,214.928207 
	C389.534454,214.940720 388.076447,215.535324 387.893555,216.156448 
	C386.764801,219.989822 383.444885,219.124344 380.795319,219.862305 
	C376.198364,221.142639 371.618408,222.524063 367.134644,224.148285 
	C365.663330,224.681274 363.330780,226.215714 363.417786,227.090836 
	C363.809174,231.028748 360.806610,230.950256 358.611420,231.974762 
	C356.516479,232.952454 354.456573,234.010529 352.426514,235.116364 
	C352.112518,235.287430 352.040833,235.903366 351.838226,236.355652 
	C353.186859,236.559280 354.376282,236.738861 355.640594,236.929749 
	C355.153870,238.130157 354.801636,238.998871 354.436523,239.899384 
	C359.225739,238.530762 363.629211,237.272369 368.883240,235.855255 
	C369.129578,235.705185 369.375885,235.555130 370.224457,235.651398 
	C370.828491,236.415558 371.432495,237.179718 372.270294,238.555054 
	C373.578003,240.024368 374.885712,241.493683 376.043213,243.893021 
	C376.022888,256.759094 375.977936,269.625244 376.013611,282.491150 
	C376.018036,284.087646 376.450684,285.682953 376.846375,287.982788 
	C379.544708,295.348999 385.216370,297.581512 395.834015,295.280304 
	C395.834015,293.711121 395.686615,292.059631 395.877808,290.448334 
	C396.049164,289.004089 396.593262,287.604034 396.972473,286.739990 
	C397.114990,287.444611 397.257507,288.149261 397.784607,289.432373 
	C400.550629,292.664154 401.326965,288.844666 403.640900,288.057678 
	C404.348541,288.042267 405.056183,288.026886 405.909332,288.910980 
	C405.909332,291.150024 405.909332,293.389099 405.909332,295.924408 
	C410.259094,295.924408 414.125275,295.924408 418.843140,296.327911 
	C417.597015,298.592346 416.350891,300.856781 414.310974,303.204865 
	C412.436798,303.334412 410.552765,303.653229 408.690369,303.556335 
	C404.034210,303.314056 399.387421,302.608337 394.737732,302.615967 
	C391.093719,302.621918 387.451019,303.417267 383.672791,303.070282 
	C383.765656,301.596954 383.858521,300.123596 383.938263,298.858582 
	C378.885071,297.891296 374.108398,296.976959 367.524231,295.716583 
	C375.259369,294.207733 371.339874,290.653198 370.907104,288.013580 
	C370.418701,285.034485 369.436554,282.136353 368.658783,279.163513 
	C369.536621,278.462067 370.788544,277.461670 372.290558,276.261444 
	C370.264008,273.826416 368.508606,271.717255 367.418701,270.407654 
	C369.185211,268.482697 370.786285,266.738037 372.993195,264.333160 
	C369.952240,263.939026 368.192047,263.710876 366.023010,263.009552 
	C365.887726,262.850922 365.752472,262.692322 366.237549,262.096405 
	C372.903717,261.531738 374.088623,260.010681 372.356354,254.837097 
	C368.512451,254.600006 364.825897,254.372620 360.942108,254.133072 
	C364.272583,252.158463 367.454437,250.271942 370.636292,248.385437 
	C370.445740,247.693512 370.255157,247.001602 370.064575,246.309692 
	C367.144501,246.068649 364.224457,245.827621 360.331848,245.506302 
	C360.109863,248.177734 359.829132,251.556351 359.531158,255.142578 
	C358.184784,254.436111 356.781647,253.699875 355.127411,252.831863 
	C354.972656,255.921646 354.830139,258.766968 354.629089,262.781372 
	C352.256805,260.912659 350.848053,259.802917 348.872833,258.246979 
	C349.664612,262.657227 346.562012,266.708832 350.555603,270.239075 
	C351.076294,270.699310 349.894348,273.085632 349.501007,274.579834 
	C349.210327,274.516144 348.919617,274.452484 348.628906,274.388794 
	C348.884827,276.075684 349.140717,277.762573 349.396637,279.449463 
	C349.005981,279.580627 348.615326,279.711792 348.224670,279.842987 
	C349.799469,280.891174 351.374237,281.939392 352.308105,283.037537 
	C351.887909,283.731567 350.981750,284.909363 351.119598,285.047821 
	C353.602386,287.541687 356.783905,289.407349 358.421478,293.673370 
	C359.531250,296.382965 360.641022,299.092529 360.913483,301.894836 
	C358.681183,299.856842 356.448883,297.818848 354.428131,295.973969 
	C352.727936,297.001007 351.338074,297.840607 349.793732,298.773499 
	C351.403015,301.803253 353.050079,304.904205 355.020630,308.647797 
	C357.693268,310.189056 360.365906,311.730316 363.183441,313.907440 
	C365.174896,315.925781 367.166382,317.944153 369.737396,320.474182 
	C377.405182,321.842468 379.508575,320.499451 381.660828,313.139435 
	C381.660828,313.139435 381.854187,312.943665 382.557098,312.988617 
	C383.409149,312.651398 384.261200,312.314178 385.944427,312.054565 
	C387.325287,311.990479 388.706177,311.926392 390.606140,312.178986 
	C389.916077,313.766937 389.225983,315.354889 388.535919,316.942841 
	C390.240265,317.302643 392.051697,318.220032 393.628754,317.917145 
	C398.253815,317.028870 402.752106,315.620544 407.386810,317.977631 
	C407.954590,318.266357 409.118774,317.382446 409.784729,316.292389 
	C410.952698,314.708130 412.120667,313.123871 414.033173,311.764008 
	C416.048920,312.150177 418.064636,312.536346 420.720856,313.395325 
	C422.515320,320.490601 426.267517,322.492798 433.651978,319.879578 
	C435.426941,317.673157 437.201904,315.466736 439.703430,312.947510 
	C442.215729,311.279205 444.728027,309.610931 447.818085,307.596558 
	C449.258820,304.508545 450.699524,301.420502 451.916962,298.811066 
	C450.526245,297.851013 449.243164,296.965271 448.169830,295.589020 
	C448.128784,294.779999 448.087769,293.971008 448.581970,292.684814 
	C450.135712,290.814911 451.689453,288.945007 453.580750,286.668884 
	C451.407959,286.358246 450.255035,286.193420 449.703400,285.482239 
	C450.146118,285.170837 450.588806,284.859406 451.604858,284.537140 
	C454.211700,282.743378 453.409088,281.079254 450.943298,278.936249 
	C450.781738,278.766357 450.620209,278.596497 450.824768,277.863403 
	C451.187347,276.979370 451.549957,276.095306 451.759918,275.583466 
	C451.087402,275.288788 449.616882,274.644470 448.826141,274.298004 
	C449.315399,272.226410 449.702209,270.588654 450.024780,268.265533 
	C450.129639,266.891205 450.328735,265.513062 450.273529,264.145203 
	C450.259613,263.800293 449.432373,263.488220 448.390747,262.893005 
	C448.665924,260.771088 448.941071,258.649139 449.234955,256.383026 
	C448.156921,256.383026 447.059875,256.383026 445.417755,255.901627 
	C444.001862,255.344681 442.585968,254.787750 441.471527,254.349365 
	C441.652466,252.573196 441.833038,250.800705 442.078156,248.394577 
	C439.408386,249.505936 437.571167,250.270721 435.789154,251.012543 
	C434.735443,248.798248 433.841736,246.920120 432.890198,244.408569 
	C432.093292,243.349854 431.296417,242.291122 429.907959,240.446487 
	C429.128235,243.644363 428.592255,245.842651 427.565826,248.076294 
	C427.565826,248.076294 427.074097,248.079697 427.066742,248.028870 
	C427.066742,248.028870 427.053284,247.980804 426.907410,247.503540 
z"/>
<path fill="#002D62" opacity="1.000000" stroke="none" 
	d="
M347.531372,1.000000 
	C347.918365,2.991258 347.765686,4.982502 347.765320,6.973775 
	C347.752899,73.958214 347.755005,140.942657 347.755005,207.927094 
	C347.755005,209.885071 347.755005,211.843048 347.755005,214.214081 
	C232.119751,214.214081 117.018005,214.214081 1.458127,214.107040 
	C1.000000,143.055496 1.000000,72.110977 1.000000,1.000000 
	C116.354172,1.000000 231.708435,1.000000 347.531372,1.000000 
z"/>
<path fill="#CE1126" opacity="1.000000" stroke="none" 
	d="
M801.000000,213.531342 
	C799.174927,214.080490 797.349792,214.231201 795.524719,214.231384 
	C683.890015,214.242584 572.255371,214.241455 460.620697,214.241455 
	C458.662231,214.241455 456.703796,214.241440 454.203430,214.241440 
	C454.203430,143.120544 454.203430,72.519531 454.101715,1.459258 
	C569.576233,1.000000 685.152527,1.000000 801.000000,1.000000 
	C801.000000,71.687332 801.000000,142.375000 801.000000,213.531342 
z"/>
<path fill="#002D62" opacity="1.000000" stroke="none" 
	d="
M454.402527,533.824219 
	C454.350220,521.994507 454.256012,510.164825 454.252747,498.335144 
	C454.237000,441.169373 454.245697,384.003632 454.245728,326.837860 
	C454.245728,325.047668 454.245697,323.257477 454.245697,321.001099 
	C569.828491,321.001099 684.945557,321.001099 800.531372,321.000549 
	C801.000000,391.687561 801.000000,462.375122 800.531372,533.522827 
	C687.172058,533.981262 574.281250,533.980591 461.390472,533.971741 
	C459.061157,533.971558 456.731842,533.875549 454.402527,533.824219 
z"/>
<path fill="#CE1126" opacity="1.000000" stroke="none" 
	d="
M1.000000,321.468658 
	C116.440865,321.000000 231.881729,321.000000 347.734863,321.000000 
	C347.734863,391.998566 347.734863,462.456879 347.227478,533.398438 
	C344.556335,533.914368 342.392517,533.975403 340.228729,533.975647 
	C227.152481,533.987000 114.076241,533.993225 1.000000,534.000000 
	C1.000000,463.312439 1.000000,392.624878 1.000000,321.468658 
z"/>
<path fill="#E06A78" opacity="1.000000" stroke="none" 
	d="
M1.000000,534.500000 
	C114.076241,533.993225 227.152481,533.987000 340.228729,533.975647 
	C342.392517,533.975403 344.556335,533.914368 347.161377,533.850708 
	C347.678375,534.013306 347.754181,534.206787 347.914978,534.700134 
	C232.333328,535.000000 116.666664,535.000000 1.000000,534.500000 
z"/>
<path fill="#5F7B9D" opacity="1.000000" stroke="none" 
	d="
M454.288086,534.113464 
	C456.731842,533.875549 459.061157,533.971558 461.390472,533.971741 
	C574.281250,533.980591 687.172058,533.981262 800.531372,533.991455 
	C799.502319,534.333374 798.004761,534.957397 796.506897,534.958313 
	C722.267090,535.005920 648.027344,535.000000 573.787537,535.000000 
	C534.170776,535.000000 494.554047,535.000000 454.468658,535.000000 
	C454.057861,534.800903 454.115723,534.601807 454.288086,534.113464 
z"/>
<path fill="#128031" opacity="1.000000" stroke="none" 
	d="
M352.949036,282.987610 
	C351.374237,281.939392 349.799469,280.891174 348.224670,279.842987 
	C348.615326,279.711792 349.005981,279.580627 349.396637,279.449463 
	C349.140717,277.762573 348.884827,276.075684 348.628906,274.388794 
	C348.919617,274.452484 349.210327,274.516144 349.501007,274.579834 
	C349.894348,273.085632 351.076294,270.699310 350.555603,270.239075 
	C346.562012,266.708832 349.664612,262.657227 348.872833,258.246979 
	C350.848053,259.802917 352.256805,260.912659 354.629089,262.781372 
	C354.830139,258.766968 354.972656,255.921646 355.127411,252.831863 
	C356.781647,253.699875 358.184784,254.436111 359.531158,255.142578 
	C359.829132,251.556351 360.109863,248.177734 360.331848,245.506302 
	C364.224457,245.827621 367.144501,246.068649 370.064575,246.309692 
	C370.255157,247.001602 370.445740,247.693512 370.636292,248.385437 
	C367.454437,250.271942 364.272583,252.158463 360.942108,254.133072 
	C364.825897,254.372620 368.512451,254.600006 372.356354,254.837097 
	C374.088623,260.010681 372.903717,261.531738 365.598083,262.396790 
	C364.645508,262.999634 364.332367,263.302063 364.019226,263.604492 
	C364.823425,263.563934 365.627625,263.523346 366.431824,263.482727 
	C368.192047,263.710876 369.952240,263.939026 372.993195,264.333160 
	C370.786285,266.738037 369.185211,268.482697 367.418701,270.407654 
	C368.508606,271.717255 370.264008,273.826416 372.290558,276.261444 
	C370.788544,277.461670 369.536621,278.462067 368.658783,279.163513 
	C369.436554,282.136353 370.418701,285.034485 370.907104,288.013580 
	C371.339874,290.653198 375.259369,294.207733 367.524231,295.716583 
	C374.108398,296.976959 378.885071,297.891296 383.938263,298.858582 
	C383.858521,300.123596 383.765656,301.596954 383.384613,303.581299 
	C378.376831,305.285126 373.657257,306.477936 368.453644,307.793091 
	C366.569641,306.230225 366.524841,301.349640 361.750793,301.802124 
	C360.641022,299.092529 359.531250,296.382965 358.203247,292.970398 
	C358.491730,291.179688 358.787201,289.908356 359.543732,289.037720 
	C362.103546,286.091614 360.924927,284.360382 357.777008,283.435394 
	C356.255219,282.988251 354.563690,283.118683 352.949036,282.987610 
M359.949860,277.213562 
	C359.710693,277.925262 359.471527,278.636993 359.232391,279.348694 
	C359.849792,279.242218 360.467224,279.135742 361.726593,278.889618 
	C365.124542,276.411102 360.705048,275.874451 360.159363,274.318848 
	C360.285248,275.377747 360.411102,276.436615 359.949860,277.213562 
M362.783142,296.211365 
	C361.958160,296.211365 361.133148,296.211365 360.308167,296.211365 
	C360.318573,296.412842 360.328979,296.614288 360.339386,296.815765 
	C361.339447,296.728912 362.339539,296.642059 362.783142,296.211365 
z"/>
<path fill="#153659" opacity="1.000000" stroke="none" 
	d="
M368.032684,236.013977 
	C363.629211,237.272369 359.225739,238.530762 354.436523,239.899384 
	C354.801636,238.998871 355.153870,238.130157 355.640594,236.929749 
	C354.376282,236.738861 353.186859,236.559280 351.838226,236.355652 
	C352.040833,235.903366 352.112518,235.287430 352.426514,235.116364 
	C354.456573,234.010529 356.516479,232.952454 358.611420,231.974762 
	C360.806610,230.950256 363.809174,231.028748 363.417786,227.090836 
	C363.330780,226.215714 365.663330,224.681274 367.134644,224.148285 
	C371.618408,222.524063 376.198364,221.142639 380.795319,219.862305 
	C383.444885,219.124344 386.764801,219.989822 387.893555,216.156448 
	C388.076447,215.535324 389.534454,214.940720 390.411530,214.928207 
	C397.374786,214.828644 404.340179,214.859985 411.304688,214.894577 
	C411.941742,214.897736 412.998749,215.029404 413.150879,215.396027 
	C415.902588,222.026123 422.432373,219.214600 427.073608,221.060776 
	C430.139832,222.280457 434.951813,222.827377 435.884003,225.002991 
	C438.742920,231.675323 445.769379,231.890610 451.133179,236.126968 
	C448.652588,236.840469 444.679016,235.464859 447.289368,239.850952 
	C442.772583,238.468918 438.759094,237.240875 434.197327,235.839355 
	C433.225311,235.581238 432.801575,235.496628 432.377838,235.412018 
	C431.971588,235.406036 431.565369,235.400070 430.659729,235.691422 
	C430.160339,235.988739 430.362091,235.964859 430.463074,235.507309 
	C430.339050,234.833084 430.114014,234.616409 429.805695,234.067719 
	C428.144684,228.279190 423.752991,227.289139 418.961884,227.038254 
	C416.977203,226.934326 414.976379,226.991180 412.989899,227.100998 
	C409.078949,227.317215 405.060547,227.790771 405.632751,222.028748 
	C402.256958,222.028748 399.293091,222.028748 396.362244,222.028748 
	C395.548340,227.177216 395.469147,227.078415 389.973877,227.161789 
	C383.179169,227.264862 375.365234,225.036606 371.652100,234.219055 
	C371.845428,234.776459 372.394684,235.237106 373.409149,235.782135 
	C380.923431,235.956650 387.972534,236.046814 394.721649,236.389343 
	C391.984589,236.828751 389.547455,237.015762 387.050049,237.207413 
	C387.130005,238.402710 387.209442,239.590012 387.288879,240.777298 
	C382.893158,234.543762 377.363129,236.766953 372.036530,237.943878 
	C371.432495,237.179718 370.828491,236.415558 369.703735,235.447342 
	C368.799591,235.500183 368.416138,235.757080 368.032684,236.013977 
z"/>
<path fill="#C31C27" opacity="1.000000" stroke="none" 
	d="
M361.332153,301.848480 
	C366.524841,301.349640 366.569641,306.230225 368.453644,307.793091 
	C373.657257,306.477936 378.376831,305.285126 383.452087,303.977112 
	C387.451019,303.417267 391.093719,302.621918 394.737732,302.615967 
	C399.387421,302.608337 404.034210,303.314056 408.690369,303.556335 
	C410.552765,303.653229 412.436798,303.334412 414.908112,303.468811 
	C417.695862,304.118835 419.886475,304.504852 422.457062,305.025452 
	C428.369751,307.059357 433.407104,306.239227 438.110168,302.169159 
	C439.763855,301.815002 441.204865,301.708344 441.160339,301.711639 
	C444.047241,299.320496 446.003662,297.700012 447.960083,296.079529 
	C449.243164,296.965271 450.526245,297.851013 451.916962,298.811066 
	C450.699524,301.420502 449.258820,304.508545 447.218903,307.650635 
	C446.039185,306.615448 445.458679,305.526184 444.878174,304.436951 
	C444.607422,304.487335 444.336670,304.537750 444.065918,304.588135 
	C444.065918,305.796021 444.065918,307.003937 444.065918,308.211823 
	C443.684967,307.983612 443.304016,307.755432 442.923065,307.527222 
	C441.607666,309.438263 440.292267,311.349304 438.976868,313.260315 
	C437.201904,315.466736 435.426941,317.673157 433.024017,319.932220 
	C432.641174,318.695404 432.886292,317.405945 433.308990,316.026733 
	C433.459076,315.728271 433.431549,315.519531 433.403992,315.310791 
	C433.241577,315.508759 433.079163,315.706696 432.593201,316.081116 
	C430.219208,315.869781 428.133881,315.609283 426.128113,315.058807 
	C424.071686,314.494446 422.093048,313.646393 420.080383,312.922485 
	C418.064636,312.536346 416.048920,312.150177 413.306030,311.486084 
	C405.937256,310.968597 399.295563,310.729065 392.309753,310.373779 
	C391.339447,310.792816 390.713226,311.327545 390.087036,311.862305 
	C388.706177,311.926392 387.325287,311.990479 385.171448,312.051941 
	C383.550385,312.347443 382.702271,312.645538 381.854187,312.943665 
	C381.854187,312.943665 381.660828,313.139435 381.115753,313.088165 
	C379.068909,313.784760 377.498383,314.422272 376.080811,315.305267 
	C373.721558,316.774811 371.460327,318.401825 369.157837,319.962494 
	C367.166382,317.944153 365.174896,315.925781 363.081055,313.221985 
	C361.990112,311.019043 361.001587,309.501617 359.938141,307.742188 
	C359.587280,307.323334 359.311310,307.146454 358.922333,306.674927 
	C358.313965,305.734283 357.818665,305.088287 357.252716,304.350220 
	C356.237152,305.802734 355.467163,306.903961 354.697205,308.005188 
	C353.050079,304.904205 351.403015,301.803253 349.793732,298.773499 
	C351.338074,297.840607 352.727936,297.001007 354.428131,295.973969 
	C356.448883,297.818848 358.681183,299.856842 361.332153,301.848480 
M434.527435,313.316620 
	C434.527435,313.316620 434.392578,313.609558 434.392578,313.609558 
	C434.392578,313.609558 434.679504,313.546600 434.527435,313.316620 
z"/>
<path fill="#F0EDE9" opacity="1.000000" stroke="none" 
	d="
M429.889008,234.399750 
	C430.114014,234.616409 430.339050,234.833084 429.887115,235.508636 
	C422.097198,235.969055 414.983917,235.942261 407.871765,236.017685 
	C407.190277,236.024918 406.515594,236.668915 405.898621,237.481277 
	C405.907593,244.067963 405.761963,250.192398 405.874969,256.312073 
	C405.900665,257.703552 406.822052,259.078522 407.422119,260.708008 
	C409.226196,259.388702 410.413879,258.520142 411.678955,258.109131 
	C411.475128,263.521423 411.193939,268.476196 410.912750,273.430969 
	C415.944550,270.059082 421.323029,267.558411 420.576782,260.792297 
	C422.341156,260.708405 423.698700,260.658325 425.118286,261.087646 
	C425.136261,264.711914 425.092224,267.856720 424.582153,270.954651 
	C422.589294,271.080048 421.062378,271.252380 419.346008,271.626831 
	C416.674286,274.616699 414.297272,277.509186 411.667511,280.150024 
	C410.256592,281.566864 408.343384,282.470856 406.800659,283.776306 
	C406.295776,284.203491 406.244415,285.166687 405.726196,285.994385 
	C405.565765,286.739868 405.664795,287.375671 405.763824,288.011505 
	C405.056183,288.026886 404.348541,288.042267 403.338989,287.599548 
	C402.918030,286.026184 402.798950,284.910919 402.732483,283.400085 
	C402.527222,279.868988 402.269379,276.733429 402.161255,273.404236 
	C402.830048,272.847321 403.349060,272.484070 403.875244,272.544342 
	C404.169556,275.314087 404.456787,277.660309 404.743988,280.006561 
	C405.229187,280.012573 405.714355,280.018585 406.199554,280.024597 
	C406.811340,276.602844 407.450073,273.184906 407.937195,269.745483 
	C407.956818,269.606750 406.542206,269.264893 405.439484,269.031067 
	C402.556488,270.391846 400.029877,271.739166 397.380829,273.151794 
	C396.526489,272.018829 395.762817,271.006104 395.020447,269.627167 
	C394.053162,267.205505 393.064514,265.149994 392.075867,263.094513 
	C392.506287,263.160706 392.936676,263.226898 393.367096,263.293091 
	C393.987793,260.858826 394.608459,258.424561 395.134247,255.577713 
	C395.348877,248.794205 395.658447,242.423264 396.253326,235.741089 
	C399.636383,235.284332 402.732788,235.090179 405.832184,235.002777 
	C413.850433,234.776642 421.869965,234.597595 429.889008,234.399750 
M402.371674,249.120026 
	C403.225311,248.077438 404.078918,247.034866 404.624481,246.368500 
	C403.440094,244.837097 402.295319,243.356918 400.991302,241.670837 
	C399.409210,243.401611 398.162933,244.764999 396.916687,246.128372 
	C397.357239,246.146484 397.797821,246.164597 398.238373,246.182724 
	C398.982849,249.615723 399.727356,253.048721 400.471832,256.481720 
	C400.900452,256.533966 401.329071,256.586243 401.757690,256.638489 
	C401.956970,254.405838 402.156250,252.173172 402.371674,249.120026 
z"/>
<path fill="#0A325E" opacity="1.000000" stroke="none" 
	d="
M395.968018,236.052338 
	C395.658447,242.423264 395.348877,248.794205 395.086853,255.862137 
	C395.071045,256.710876 395.038086,256.889130 394.935516,257.006622 
	C394.838135,257.118195 394.554199,257.243469 394.545807,257.231110 
	C393.322540,255.431839 392.116943,253.620590 390.910553,251.809845 
	C390.371277,252.268188 389.831970,252.726532 389.292694,253.184875 
	C389.631897,257.792542 389.971069,262.400238 390.333374,267.438049 
	C390.282745,269.546326 390.208984,271.224426 390.110077,273.474213 
	C387.014130,270.940460 384.532410,268.909393 382.060883,266.440369 
	C382.071075,264.293732 382.071075,262.585022 382.071075,260.750122 
	C379.882538,260.750122 378.419067,260.750122 376.985260,260.298950 
	C376.741058,254.219498 376.467255,248.591232 376.193420,242.962982 
	C374.885712,241.493683 373.578003,240.024368 372.153412,238.249466 
	C377.363129,236.766953 382.893158,234.543762 387.288879,240.777298 
	C387.209442,239.590012 387.130005,238.402710 387.050049,237.207413 
	C389.547455,237.015762 391.984589,236.828751 394.954712,236.330139 
	C395.487762,236.018570 395.968018,236.052338 395.968018,236.052338 
M388.517914,242.402069 
	C388.517914,242.402069 388.588928,242.519684 388.517914,242.402069 
z"/>
<path fill="#C31C27" opacity="1.000000" stroke="none" 
	d="
M425.056274,260.608246 
	C423.698700,260.658325 422.341156,260.708405 420.516541,260.350250 
	C420.052704,257.480408 420.231506,255.001053 419.985046,252.564713 
	C419.861725,251.345337 418.962738,250.204422 418.414551,249.028015 
	C417.289185,249.760925 415.829529,250.257797 415.109863,251.277145 
	C413.719788,253.246185 412.747223,255.509979 411.601562,257.651581 
	C410.413879,258.520142 409.226196,259.388702 407.422119,260.708008 
	C406.822052,259.078522 405.900665,257.703552 405.874969,256.312073 
	C405.761963,250.192398 405.907593,244.067963 406.379456,237.460541 
	C412.196655,236.968445 417.597229,236.847244 422.989532,237.006958 
	C425.302246,237.075455 427.597687,237.727875 429.900970,238.114975 
	C428.687164,239.482758 427.473389,240.850555 425.792419,242.811920 
	C425.235596,249.139755 425.145935,254.874008 425.056274,260.608246 
z"/>
<path fill="#CE1126" opacity="1.000000" stroke="none" 
	d="
M396.972900,286.184479 
	C396.593262,287.604034 396.049164,289.004089 395.877808,290.448334 
	C395.686615,292.059631 395.834015,293.711121 395.834015,295.280304 
	C385.216370,297.581512 379.544708,295.348999 376.825439,287.147888 
	C376.864319,281.168030 376.924164,276.023010 377.242737,270.885223 
	C377.662354,270.830322 377.823181,270.768188 378.382446,270.779236 
	C379.847260,270.782440 380.913666,270.712494 382.111053,270.973846 
	C384.824585,273.829590 387.440948,276.320587 389.977142,278.890717 
	C391.551025,280.485687 393.003265,282.200684 394.510101,283.861816 
	C395.123688,282.226990 395.737274,280.592163 396.738464,279.012451 
	C397.295624,281.383850 397.465179,283.700134 397.465729,286.044617 
	C397.296753,286.072754 396.972900,286.184479 396.972900,286.184479 
z"/>
<path fill="#128031" opacity="1.000000" stroke="none" 
	d="
M448.978851,263.161072 
	C449.432373,263.488220 450.259613,263.800293 450.273529,264.145203 
	C450.328735,265.513062 450.129639,266.891205 449.750000,268.756683 
	C446.995361,272.152863 444.515533,275.057892 441.676147,277.906647 
	C440.646912,276.493225 439.977295,275.136047 439.242157,273.646118 
	C437.576324,273.933044 435.805267,274.238068 434.158081,274.521759 
	C434.856995,276.599274 435.688873,277.933319 435.678528,279.260803 
	C435.650757,282.832794 435.263458,286.402039 435.010803,289.983398 
	C435.002716,289.994476 434.982666,290.014282 434.707825,289.729675 
	C433.683258,286.675446 432.933563,283.905853 432.081726,280.941650 
	C431.979584,280.747009 431.886536,280.319794 431.923889,279.949615 
	C431.986725,279.334106 432.012238,279.088745 432.396240,278.786835 
	C432.771118,277.552460 432.787506,276.374695 432.687378,274.889832 
	C431.673492,274.014282 430.776062,273.445801 429.991394,272.579834 
	C430.867249,271.548157 431.630310,270.813995 432.743683,270.008087 
	C433.372162,266.320801 433.650360,262.705261 434.197205,259.167297 
	C434.949707,259.523407 435.433533,259.801849 435.950806,260.317932 
	C436.127045,260.821106 436.269867,261.086639 436.412689,261.352173 
	C436.297638,260.885101 436.182556,260.418060 436.051697,259.535217 
	C436.035919,257.049866 436.035919,254.980270 436.035919,252.760742 
	C434.102509,253.238144 432.595398,253.610291 430.929688,253.691437 
	C429.597412,252.222610 428.423767,251.044769 427.232208,249.567383 
	C427.167572,248.871796 427.120850,248.475754 427.074097,248.079697 
	C427.074097,248.079697 427.565826,248.076294 428.107727,248.050659 
	C430.082458,247.030701 431.515228,246.036346 432.948029,245.041992 
	C433.841736,246.920120 434.735443,248.798248 435.789154,251.012543 
	C437.571167,250.270721 439.408386,249.505936 442.078156,248.394577 
	C441.833038,250.800705 441.652466,252.573196 441.471527,254.349365 
	C442.585968,254.787750 444.001862,255.344681 445.811096,256.419159 
	C445.782867,257.787659 445.440613,258.690613 444.923492,259.478882 
	C443.803864,261.185608 442.594666,262.833557 441.422119,264.505554 
	C441.778931,264.839752 442.135712,265.173920 442.492523,265.508118 
	C444.654633,264.725769 446.816742,263.943420 448.978851,263.161072 
z"/>
<path fill="#0A325E" opacity="1.000000" stroke="none" 
	d="
M405.836578,288.461243 
	C405.664795,287.375671 405.565765,286.739868 406.050110,286.135559 
	C409.179108,288.207428 412.243042,290.186127 415.018524,287.710846 
	C417.225281,285.742798 418.823456,282.619171 419.644409,279.712708 
	C420.364380,277.163635 419.628387,274.203339 419.535492,271.424683 
	C421.062378,271.252380 422.589294,271.080048 424.558411,271.420380 
	C425.033569,276.952209 425.066528,281.971405 425.076416,287.366638 
	C422.688507,290.501740 420.323608,293.260742 417.964478,295.995117 
	C417.970245,295.970459 417.991425,295.924408 417.991425,295.924408 
	C414.125275,295.924408 410.259094,295.924408 405.909332,295.924408 
	C405.909332,293.389099 405.909332,291.150024 405.836578,288.461243 
z"/>
<path fill="#127218" opacity="1.000000" stroke="none" 
	d="
M432.183868,281.136261 
	C432.933563,283.905853 433.683258,286.675446 434.688782,290.060974 
	C433.114136,293.792175 431.283661,296.907471 429.369202,300.165710 
	C431.795593,300.165710 434.600616,300.165710 437.304199,300.412231 
	C437.081146,300.788391 436.959595,300.917969 436.394043,301.012085 
	C432.663544,300.976562 429.377106,300.976562 425.008972,300.976562 
	C427.083557,301.826630 428.160614,302.267975 429.297089,302.733643 
	C426.652374,303.523834 424.364716,304.207367 422.077087,304.890869 
	C419.886475,304.504852 417.695862,304.118835 415.305023,303.427002 
	C416.350891,300.856781 417.597015,298.592346 418.417297,296.126160 
	C417.991425,295.924408 417.970245,295.970459 418.168945,296.373718 
	C420.328247,296.063599 422.928406,295.900665 424.115448,294.521484 
	C426.536255,291.708710 428.195862,288.240814 430.402191,285.228790 
	C431.149078,285.859283 431.662842,286.303833 432.907532,287.380829 
	C432.447052,285.201782 432.196503,284.015991 431.979431,282.545715 
	C432.069946,281.886230 432.126923,281.511230 432.183868,281.136261 
z"/>
<path fill="#128031" opacity="1.000000" stroke="none" 
	d="
M437.405640,300.165710 
	C434.600616,300.165710 431.795593,300.165710 429.369202,300.165710 
	C431.283661,296.907471 433.114136,293.792175 434.963623,290.345581 
	C434.982666,290.014282 435.002716,289.994476 435.322968,289.844116 
	C437.745148,286.131531 439.847046,282.569366 442.286957,279.034973 
	C444.348785,280.387543 446.072632,281.712341 448.589325,283.646484 
	C448.710876,283.594391 450.049530,283.020630 452.175812,282.109283 
	C451.543793,283.456299 451.287659,284.002167 451.031525,284.548004 
	C450.588806,284.859406 450.146118,285.170837 449.109528,285.804016 
	C443.664062,290.155945 438.812500,294.186127 433.002350,299.012543 
	C435.484283,298.860809 436.470367,298.800537 437.797546,298.741302 
	C438.961243,298.999451 439.783783,299.256500 440.606354,299.513580 
	C440.585693,299.730957 440.565033,299.948334 440.544373,300.165710 
	C439.498138,300.165710 438.451874,300.165710 437.405640,300.165710 
z"/>
<path fill="#7A1520" opacity="1.000000" stroke="none" 
	d="
M390.346588,312.020630 
	C390.713226,311.327545 391.339447,310.792816 392.255524,310.613708 
	C392.559662,311.407898 392.573944,311.846497 392.588196,312.285065 
	C392.641785,312.190186 392.672455,312.043762 392.752350,312.008270 
	C393.630585,311.618530 394.523224,310.908630 395.399200,310.926117 
	C399.651917,311.010834 403.900726,311.291809 408.865662,311.538818 
	C408.992157,312.174713 409.264648,313.544312 409.325684,315.239197 
	C409.421021,316.059998 409.727753,316.555511 410.020325,317.058655 
	C410.006195,317.066315 410.006592,317.041962 410.006592,317.041931 
	C409.118774,317.382446 407.954590,318.266357 407.386810,317.977631 
	C402.752106,315.620544 398.253815,317.028870 393.628754,317.917145 
	C392.051697,318.220032 390.240265,317.302643 388.535919,316.942841 
	C389.225983,315.354889 389.916077,313.766937 390.346588,312.020630 
z"/>
<path fill="#153659" opacity="1.000000" stroke="none" 
	d="
M397.634705,286.016449 
	C397.465179,283.700134 397.295624,281.383850 396.870667,278.690918 
	C395.815338,275.548157 395.015411,272.781982 394.413879,270.097656 
	C394.612305,270.179474 394.999115,269.993347 394.999115,269.993347 
	C395.762817,271.006104 396.526489,272.018829 397.380829,273.151794 
	C400.029877,271.739166 402.556488,270.391846 405.428040,269.346344 
	C405.138000,270.472412 404.503052,271.296631 403.868103,272.120819 
	C403.349060,272.484070 402.830048,272.847321 401.732330,273.512665 
	C400.795593,276.934265 400.401123,280.051300 400.191986,283.180756 
	C400.182037,283.329620 401.813049,283.588196 402.679871,283.795685 
	C402.798950,284.910919 402.918030,286.026184 402.986877,287.559998 
	C401.326965,288.844666 400.550629,292.664154 397.717010,288.802338 
	C397.644531,287.453674 397.639618,286.735077 397.634705,286.016449 
z"/>
<path fill="#418C3B" opacity="1.000000" stroke="none" 
	d="
M437.456421,298.740265 
	C436.470367,298.800537 435.484283,298.860809 433.002350,299.012543 
	C438.812500,294.186127 443.664062,290.155945 448.808899,286.077209 
	C450.255035,286.193420 451.407959,286.358246 453.580750,286.668884 
	C451.689453,288.945007 450.135712,290.814911 447.956360,292.947662 
	C445.529510,294.113892 443.695831,294.959015 441.936798,295.938232 
	C440.399719,296.793854 438.946625,297.800385 437.456421,298.740265 
z"/>
<path fill="#418C3B" opacity="1.000000" stroke="none" 
	d="
M451.318176,284.542572 
	C451.287659,284.002167 451.543793,283.456299 452.175812,282.109283 
	C450.049530,283.020630 448.710876,283.594391 448.589325,283.646484 
	C446.072632,281.712341 444.348785,280.387543 442.317810,278.774536 
	C442.019043,278.311890 442.027405,278.137390 442.035736,277.962921 
	C444.515533,275.057892 446.995361,272.152863 449.782104,269.099365 
	C449.702209,270.588654 449.315399,272.226410 448.826141,274.298004 
	C449.616882,274.644470 451.087402,275.288788 451.759918,275.583466 
	C451.549957,276.095306 451.187347,276.979370 450.403564,278.314941 
	C449.792328,279.089752 449.602264,279.413055 449.412231,279.736359 
	C450.078766,279.644409 450.745331,279.552460 451.411865,279.460541 
	C453.409088,281.079254 454.211700,282.743378 451.318176,284.542572 
z"/>
<path fill="#7A1520" opacity="1.000000" stroke="none" 
	d="
M433.131409,316.116486 
	C432.886292,317.405945 432.641174,318.695404 432.688202,319.960968 
	C426.267517,322.492798 422.515320,320.490601 420.400635,313.158905 
	C422.093048,313.646393 424.071686,314.494446 426.128113,315.058807 
	C428.133881,315.609283 430.219208,315.869781 432.645264,316.135742 
	C433.020874,316.013855 433.131409,316.116486 433.131409,316.116486 
z"/>
<path fill="#418C3B" opacity="1.000000" stroke="none" 
	d="
M352.628571,283.012573 
	C354.563690,283.118683 356.255219,282.988251 357.777008,283.435394 
	C360.924927,284.360382 362.103546,286.091614 359.543732,289.037720 
	C358.787201,289.908356 358.491730,291.179688 357.983032,292.642761 
	C356.783905,289.407349 353.602386,287.541687 351.119598,285.047821 
	C350.981750,284.909363 351.887909,283.731567 352.628571,283.012573 
z"/>
<path fill="#7A1520" opacity="1.000000" stroke="none" 
	d="
M369.447632,320.218323 
	C371.460327,318.401825 373.721558,316.774811 376.080811,315.305267 
	C377.498383,314.422272 379.068909,313.784760 380.991943,313.028076 
	C379.508575,320.499451 377.405182,321.842468 369.447632,320.218323 
z"/>
<path fill="#648E61" opacity="1.000000" stroke="none" 
	d="
M425.099457,286.990570 
	C425.066528,281.971405 425.033569,276.952209 425.024384,271.467285 
	C425.092224,267.856720 425.136261,264.711914 425.118286,261.087646 
	C425.145935,254.874008 425.235596,249.139755 425.609131,243.060333 
	C425.917938,243.875839 425.942902,245.036499 426.138947,246.822144 
	C426.518005,247.680389 426.765747,247.858292 427.053284,247.980804 
	C427.053284,247.980804 427.066742,248.028870 427.070435,248.054291 
	C427.120850,248.475754 427.167572,248.871796 427.153381,249.886841 
	C426.731384,251.684906 426.370300,252.863983 425.981842,254.571274 
	C425.916016,260.192841 425.957214,265.288391 425.817688,270.378967 
	C425.665802,275.918579 425.346039,281.453552 425.099457,286.990570 
z"/>
<path fill="#F0EDE9" opacity="1.000000" stroke="none" 
	d="
M437.797546,298.741333 
	C438.946625,297.800385 440.399719,296.793854 441.936798,295.938232 
	C443.695831,294.959015 445.529510,294.113892 447.688751,293.186249 
	C448.087769,293.971008 448.128784,294.779999 448.064972,295.834290 
	C446.003662,297.700012 444.047241,299.320496 441.160339,301.711639 
	C441.204865,301.708344 439.763855,301.815002 438.040955,301.870636 
	C437.452087,301.562256 437.145081,301.304932 436.838074,301.047577 
	C436.959595,300.917969 437.081146,300.788391 437.304199,300.412231 
	C438.451874,300.165710 439.498138,300.165710 440.544373,300.165710 
	C440.565033,299.948334 440.585693,299.730957 440.606354,299.513580 
	C439.783783,299.256500 438.961243,298.999451 437.797546,298.741333 
z"/>
<path fill="#648E61" opacity="1.000000" stroke="none" 
	d="
M376.983978,270.878021 
	C376.924164,276.023010 376.864319,281.168030 376.744690,286.795898 
	C376.450684,285.682953 376.018036,284.087646 376.013611,282.491150 
	C375.977936,269.625244 376.022888,256.759094 376.118317,243.428009 
	C376.467255,248.591232 376.741058,254.219498 376.950531,260.764648 
	C376.963226,264.449738 377.040253,267.217926 377.053131,270.204468 
	C376.988953,270.422852 376.983978,270.878021 376.983978,270.878021 
z"/>
<path fill="#418C3B" opacity="1.000000" stroke="none" 
	d="
M448.684814,263.027039 
	C446.816742,263.943420 444.654633,264.725769 442.492523,265.508118 
	C442.135712,265.173920 441.778931,264.839752 441.422119,264.505554 
	C442.594666,262.833557 443.803864,261.185608 444.923492,259.478882 
	C445.440613,258.690613 445.782867,257.787659 446.083618,256.659851 
	C447.059875,256.383026 448.156921,256.383026 449.234955,256.383026 
	C448.941071,258.649139 448.665924,260.771088 448.684814,263.027039 
z"/>
<path fill="#127218" opacity="1.000000" stroke="none" 
	d="
M409.537109,314.913910 
	C409.264648,313.544312 408.992157,312.174713 408.865662,311.538818 
	C403.900726,311.291809 399.651917,311.010834 395.399200,310.926117 
	C394.523224,310.908630 393.630585,311.618530 392.752350,312.008270 
	C392.672455,312.043762 392.641785,312.190186 392.588196,312.285065 
	C392.573944,311.846497 392.559662,311.407898 392.599670,310.729431 
	C399.295563,310.729065 405.937256,310.968597 412.933777,311.373901 
	C412.120667,313.123871 410.952698,314.708130 409.895660,316.667175 
	C410.006592,317.041962 410.006195,317.066315 410.279053,316.795227 
	C410.213623,315.987427 409.875366,315.450653 409.537109,314.913910 
z"/>
<path fill="#7A1520" opacity="1.000000" stroke="none" 
	d="
M354.858917,308.326477 
	C355.467163,306.903961 356.237152,305.802734 357.252716,304.350220 
	C357.818665,305.088287 358.313965,305.734283 358.903900,306.691589 
	C358.998505,307.002899 358.963043,307.037598 358.704895,307.043427 
	C358.207886,307.168335 357.969055,307.287415 357.730225,307.406494 
	C358.158173,307.608734 358.586090,307.810944 359.006622,308.006317 
	C358.999207,307.999451 358.983398,307.986572 359.049072,308.178528 
	C359.401794,308.253052 359.688843,308.135590 359.985504,308.010681 
	C359.995087,308.003235 360.013062,307.984161 360.013062,307.984161 
	C361.001587,309.501617 361.990112,311.019043 363.008606,312.904053 
	C360.365906,311.730316 357.693268,310.189056 354.858917,308.326477 
z"/>
<path fill="#7A1520" opacity="1.000000" stroke="none" 
	d="
M439.340149,313.103912 
	C440.292267,311.349304 441.607666,309.438263 442.923065,307.527222 
	C443.304016,307.755432 443.684967,307.983612 444.065918,308.211823 
	C444.065918,307.003937 444.065918,305.796021 444.065918,304.588135 
	C444.336670,304.537750 444.607422,304.487335 444.878174,304.436951 
	C445.458679,305.526184 446.039185,306.615448 446.930054,307.823669 
	C444.728027,309.610931 442.215729,311.279205 439.340149,313.103912 
z"/>
<path fill="#7A1520" opacity="1.000000" stroke="none" 
	d="
M430.244019,237.915253 
	C427.597687,237.727875 425.302246,237.075455 422.989532,237.006958 
	C417.597229,236.847244 412.196655,236.968445 406.318573,236.996567 
	C406.515594,236.668915 407.190277,236.024918 407.871765,236.017685 
	C414.983917,235.942261 422.097198,235.969055 429.786133,235.966187 
	C430.362091,235.964859 430.160339,235.988739 430.125854,235.985352 
	C430.256622,236.559830 430.421844,237.137680 430.244019,237.915253 
z"/>
<path fill="#418C3B" opacity="1.000000" stroke="none" 
	d="
M432.919128,244.725281 
	C431.515228,246.036346 430.082458,247.030701 428.352966,248.032990 
	C428.592255,245.842651 429.128235,243.644363 429.907959,240.446487 
	C431.296417,242.291122 432.093292,243.349854 432.919128,244.725281 
z"/>
<path fill="#7A1520" opacity="1.000000" stroke="none" 
	d="
M382.205627,312.966125 
	C382.702271,312.645538 383.550385,312.347443 384.755859,312.013153 
	C384.261200,312.314178 383.409149,312.651398 382.205627,312.966125 
z"/>
<path fill="#F8F8F8" opacity="1.000000" stroke="none" 
	d="
M397.465729,286.044617 
	C397.639618,286.735077 397.644531,287.453674 397.524719,288.513092 
	C397.257507,288.149261 397.114990,287.444611 396.972687,286.462219 
	C396.972900,286.184479 397.296753,286.072754 397.465729,286.044617 
z"/>
<path fill="#418C3B" opacity="1.000000" stroke="none" 
	d="
M426.980347,247.742172 
	C426.765747,247.858292 426.518005,247.680389 426.196747,247.248657 
	C426.461029,247.014084 426.735687,247.165192 426.980347,247.742172 
z"/>
<path fill="#F0EDE9" opacity="1.000000" stroke="none" 
	d="
M432.747223,235.635681 
	C432.801575,235.496628 433.225311,235.581238 433.807678,235.839813 
	C433.683105,235.962311 433.399841,235.910828 432.747223,235.635681 
z"/>
<path fill="#F0EDE9" opacity="1.000000" stroke="none" 
	d="
M368.457947,235.934601 
	C368.416138,235.757080 368.799591,235.500183 369.402588,235.324173 
	C369.375885,235.555130 369.129578,235.705185 368.457947,235.934601 
z"/>
<path fill="#648E61" opacity="1.000000" stroke="none" 
	d="
M360.536957,277.495483 
	C360.411102,276.436615 360.285248,275.377747 360.159363,274.318848 
	C360.705048,275.874451 365.124542,276.411102 361.337128,278.698120 
	C360.810760,278.169586 360.673859,277.832520 360.536957,277.495483 
z"/>
<path fill="#F0EDE9" opacity="1.000000" stroke="none" 
	d="
M360.243408,277.354523 
	C360.673859,277.832520 360.810760,278.169586 361.016144,278.767944 
	C360.467224,279.135742 359.849792,279.242218 359.232361,279.348694 
	C359.471527,278.636993 359.710693,277.925262 360.243408,277.354523 
z"/>
<path fill="#FFFEFE" opacity="1.000000" stroke="none" 
	d="
M363.061371,296.383301 
	C362.339539,296.642059 361.339447,296.728912 360.339386,296.815765 
	C360.328979,296.614288 360.318573,296.412842 360.308167,296.211365 
	C361.133148,296.211365 361.958160,296.211365 363.061371,296.383301 
z"/>
<path fill="#FFFEFE" opacity="1.000000" stroke="none" 
	d="
M366.227417,263.246155 
	C365.627625,263.523346 364.823425,263.563934 364.019226,263.604492 
	C364.332367,263.302063 364.645508,262.999634 365.287903,262.615479 
	C365.752472,262.692322 365.887726,262.850922 366.227417,263.246155 
z"/>
<path fill="#F8F8F8" opacity="1.000000" stroke="none" 
	d="
M396.253326,235.741089 
	C395.968018,236.052338 395.487762,236.018570 395.254700,236.077774 
	C387.972534,236.046814 380.923431,235.956650 373.291229,235.584900 
	C372.474731,234.909637 372.241364,234.515991 372.007996,234.122330 
	C375.365234,225.036606 383.179169,227.264862 389.973877,227.161789 
	C395.469147,227.078415 395.548340,227.177216 396.362244,222.028748 
	C399.293091,222.028748 402.256958,222.028748 405.632751,222.028748 
	C405.060547,227.790771 409.078949,227.317215 412.989899,227.100998 
	C414.976379,226.991180 416.977203,226.934326 418.961884,227.038254 
	C423.752991,227.289139 428.144684,228.279190 429.805695,234.067719 
	C421.869965,234.597595 413.850433,234.776642 405.832184,235.002777 
	C402.732788,235.090179 399.636383,235.284332 396.253326,235.741089 
z"/>
<path fill="#FFFEFE" opacity="1.000000" stroke="none" 
	d="
M371.652100,234.219055 
	C372.241364,234.515991 372.474731,234.909637 372.826019,235.500534 
	C372.394684,235.237106 371.845428,234.776459 371.652100,234.219055 
z"/>
<path fill="#128031" opacity="1.000000" stroke="none" 
	d="
M436.394043,301.012085 
	C437.145081,301.304932 437.452087,301.562256 437.828308,302.118134 
	C433.407104,306.239227 428.369751,307.059357 422.457062,305.025452 
	C424.364716,304.207367 426.652374,303.523834 429.297089,302.733643 
	C428.160614,302.267975 427.083557,301.826630 425.008972,300.976562 
	C429.377106,300.976562 432.663544,300.976562 436.394043,301.012085 
z"/>
<path fill="#7A1520" opacity="1.000000" stroke="none" 
	d="
M434.603455,313.431610 
	C434.679504,313.546600 434.392578,313.609558 434.392578,313.609558 
	C434.392578,313.609558 434.527435,313.316620 434.603455,313.431610 
z"/>
<path fill="#7A1520" opacity="1.000000" stroke="none" 
	d="
M432.968811,315.959229 
	C433.079163,315.706696 433.241577,315.508759 433.403992,315.310791 
	C433.431549,315.519531 433.459076,315.728271 433.309021,316.026733 
	C433.131409,316.116486 433.020874,316.013855 432.968811,315.959229 
z"/>
<path fill="#7A1520" opacity="1.000000" stroke="none" 
	d="
M359.016937,306.986237 
	C359.311310,307.146454 359.587280,307.323334 359.938141,307.742188 
	C360.013062,307.984161 359.995087,308.003235 359.737366,308.007965 
	C359.479645,308.012695 358.983398,307.986572 358.983398,307.986572 
	C358.983398,307.986572 358.999207,307.999451 358.991150,307.762543 
	C358.983093,307.525635 358.963043,307.037598 358.963043,307.037598 
	C358.963043,307.037598 358.998505,307.002899 359.016937,306.986237 
z"/>
<path fill="#0A325E" opacity="1.000000" stroke="none" 
	d="
M411.678955,258.109131 
	C412.747223,255.509979 413.719788,253.246185 415.109863,251.277145 
	C415.829529,250.257797 417.289185,249.760925 418.414551,249.028015 
	C418.962738,250.204422 419.861725,251.345337 419.985046,252.564713 
	C420.231506,255.001053 420.052704,257.480408 420.109741,260.384064 
	C421.323029,267.558411 415.944550,270.059082 410.912750,273.430969 
	C411.193939,268.476196 411.475128,263.521423 411.678955,258.109131 
z"/>
<path fill="#C31C27" opacity="1.000000" stroke="none" 
	d="
M419.346008,271.626831 
	C419.628387,274.203339 420.364380,277.163635 419.644409,279.712708 
	C418.823456,282.619171 417.225281,285.742798 415.018524,287.710846 
	C412.243042,290.186127 409.179108,288.207428 406.309570,286.025909 
	C406.244415,285.166687 406.295776,284.203491 406.800659,283.776306 
	C408.343384,282.470856 410.256592,281.566864 411.667511,280.150024 
	C414.297272,277.509186 416.674286,274.616699 419.346008,271.626831 
z"/>
<path fill="#648E61" opacity="1.000000" stroke="none" 
	d="
M395.020447,269.627167 
	C394.999115,269.993347 394.612305,270.179474 394.067139,270.041260 
	C392.451385,268.938019 391.380829,267.972961 390.310272,267.007904 
	C389.971069,262.400238 389.631897,257.792542 389.292694,253.184875 
	C389.831970,252.726532 390.371277,252.268188 390.910553,251.809845 
	C392.116943,253.620590 393.322540,255.431839 394.545807,257.231110 
	C394.554199,257.243469 394.838135,257.118195 394.935516,257.006622 
	C395.038086,256.889130 395.071045,256.710876 395.181763,256.274719 
	C394.608459,258.424561 393.987793,260.858826 393.367096,263.293091 
	C392.936676,263.226898 392.506287,263.160706 392.075867,263.094513 
	C393.064514,265.149994 394.053162,267.205505 395.020447,269.627167 
z"/>
<path fill="#E06A78" opacity="1.000000" stroke="none" 
	d="
M402.363586,249.530273 
	C402.156250,252.173172 401.956970,254.405838 401.757690,256.638489 
	C401.329071,256.586243 400.900452,256.533966 400.471832,256.481720 
	C399.727356,253.048721 398.982849,249.615723 398.238373,246.182724 
	C397.797821,246.164597 397.357239,246.146484 396.916687,246.128372 
	C398.162933,244.764999 399.409210,243.401611 400.991302,241.670837 
	C402.295319,243.356918 403.440094,244.837097 404.624481,246.368500 
	C404.078918,247.034866 403.225311,248.077438 402.363586,249.530273 
z"/>
<path fill="#C31C27" opacity="1.000000" stroke="none" 
	d="
M403.875244,272.544342 
	C404.503052,271.296631 405.138000,270.472412 405.784393,269.332947 
	C406.542206,269.264893 407.956818,269.606750 407.937195,269.745483 
	C407.450073,273.184906 406.811340,276.602844 406.199554,280.024597 
	C405.714355,280.018585 405.229187,280.012573 404.743988,280.006561 
	C404.456787,277.660309 404.169556,275.314087 403.875244,272.544342 
z"/>
<path fill="#C31C27" opacity="1.000000" stroke="none" 
	d="
M402.732483,283.400085 
	C401.813049,283.588196 400.182037,283.329620 400.191986,283.180756 
	C400.401123,280.051300 400.795593,276.934265 401.582581,273.706360 
	C402.269379,276.733429 402.527222,279.868988 402.732483,283.400085 
z"/>
<path fill="#F0EDE9" opacity="1.000000" stroke="none" 
	d="
M390.333374,267.438049 
	C391.380829,267.972961 392.451385,268.938019 393.868713,269.959412 
	C395.015411,272.781982 395.815338,275.548157 396.483063,278.635834 
	C395.737274,280.592163 395.123688,282.226990 394.510101,283.861816 
	C393.003265,282.200684 391.551025,280.485687 389.977142,278.890717 
	C387.440948,276.320587 384.824585,273.829590 382.086548,270.597412 
	C381.970917,268.885864 382.010803,267.882111 382.050690,266.878326 
	C384.532410,268.909393 387.014130,270.940460 390.110077,273.474213 
	C390.208984,271.224426 390.282745,269.546326 390.333374,267.438049 
z"/>
<path fill="#FFFEFE" opacity="1.000000" stroke="none" 
	d="
M382.060883,266.440369 
	C382.010803,267.882111 381.970917,268.885864 381.955536,270.266113 
	C380.913666,270.712494 379.847260,270.782440 378.290344,270.605225 
	C377.612915,270.159607 377.385437,270.035614 377.117310,269.986115 
	C377.040253,267.217926 376.963226,264.449738 376.920898,261.215820 
	C378.419067,260.750122 379.882538,260.750122 382.071075,260.750122 
	C382.071075,262.585022 382.071075,264.293732 382.060883,266.440369 
z"/>
<path fill="#153659" opacity="1.000000" stroke="none" 
	d="
M388.553406,242.460876 
	C388.588928,242.519684 388.517914,242.402069 388.553406,242.460876 
z"/>
<path fill="#F0EDE9" opacity="1.000000" stroke="none" 
	d="
M377.053131,270.204468 
	C377.385437,270.035614 377.612915,270.159607 377.891907,270.532104 
	C377.823181,270.768188 377.662354,270.830322 377.242737,270.885223 
	C376.983978,270.878021 376.988953,270.422852 377.053131,270.204468 
z"/>
<path fill="#FFFEFE" opacity="1.000000" stroke="none" 
	d="
M425.076416,287.366638 
	C425.346039,281.453552 425.665802,275.918579 425.817688,270.378967 
	C425.957214,265.288391 425.916016,260.192841 426.283813,254.797211 
	C427.446381,255.011963 428.279510,255.529022 429.010254,256.382080 
	C429.274078,257.793640 429.640289,258.869263 429.715332,260.114441 
	C428.993042,263.124847 428.809753,265.816101 431.871155,267.578339 
	C432.362427,267.861145 432.234894,269.218933 432.393402,270.079803 
	C431.630310,270.813995 430.867249,271.548157 429.690552,272.786865 
	C428.911804,274.975983 428.546722,276.660583 428.080841,278.620605 
	C427.791504,280.650146 427.602905,282.404297 427.396118,284.327881 
	C428.954407,283.709381 430.140869,283.238434 431.165710,283.065186 
	C430.725739,283.922852 430.447418,284.482819 430.169067,285.042816 
	C428.195862,288.240814 426.536255,291.708710 424.115448,294.521484 
	C422.928406,295.900665 420.328247,296.063599 418.163147,296.398376 
	C420.323608,293.260742 422.688507,290.501740 425.076416,287.366638 
z"/>
<path fill="#418C3B" opacity="1.000000" stroke="none" 
	d="
M432.743683,270.008087 
	C432.234894,269.218933 432.362427,267.861145 431.871155,267.578339 
	C428.809753,265.816101 428.993042,263.124847 430.014160,260.080505 
	C430.107025,258.600006 429.609833,257.323059 429.112671,256.046082 
	C428.279510,255.529022 427.446381,255.011963 426.311218,254.268982 
	C426.370300,252.863983 426.731384,251.684906 427.171265,250.186386 
	C428.423767,251.044769 429.597412,252.222610 431.039185,253.993149 
	C431.859467,255.720612 432.411591,256.855377 433.065491,258.214966 
	C433.345154,258.737213 433.600800,258.932953 433.941589,259.042450 
	C433.948883,259.057861 433.928558,259.089691 433.928558,259.089691 
	C433.650360,262.705261 433.372162,266.320801 432.743683,270.008087 
z"/>
<path fill="#127218" opacity="1.000000" stroke="none" 
	d="
M441.676147,277.906647 
	C442.027405,278.137390 442.019043,278.311890 441.979858,278.746765 
	C439.847046,282.569366 437.745148,286.131531 435.331055,289.833038 
	C435.263458,286.402039 435.650757,282.832794 435.678528,279.260803 
	C435.688873,277.933319 434.856995,276.599274 434.158081,274.521759 
	C435.805267,274.238068 437.576324,273.933044 439.242157,273.646118 
	C439.977295,275.136047 440.646912,276.493225 441.676147,277.906647 
z"/>
<path fill="#127218" opacity="1.000000" stroke="none" 
	d="
M432.963684,257.990143 
	C432.411591,256.855377 431.859467,255.720612 431.197815,254.284134 
	C432.595398,253.610291 434.102509,253.238144 436.035919,252.760742 
	C436.035919,254.980270 436.035919,257.049866 436.013031,259.566223 
	C435.990143,260.013000 435.917358,260.080322 435.917358,260.080322 
	C435.433533,259.801849 434.949707,259.523407 434.197205,259.167297 
	C433.928558,259.089691 433.948883,259.057861 433.850586,258.812378 
	C433.556213,258.283356 433.293365,258.091095 432.963684,257.990143 
z"/>
<path fill="#E06A78" opacity="1.000000" stroke="none" 
	d="
M431.327362,282.767487 
	C430.140869,283.238434 428.954407,283.709381 427.396118,284.327881 
	C427.602905,282.404297 427.791504,280.650146 428.287231,278.541321 
	C428.594391,278.186584 428.983185,277.978760 428.994934,277.991333 
	C429.006683,278.003906 429.034302,278.025299 429.049530,278.378174 
	C430.005341,279.260651 430.945953,279.790222 431.886536,280.319794 
	C431.886536,280.319794 431.979584,280.747009 432.081726,280.941650 
	C432.126923,281.511230 432.069946,281.886230 431.822815,282.549011 
	C431.632660,282.836792 431.327362,282.767487 431.327362,282.767487 
z"/>
<path fill="#648E61" opacity="1.000000" stroke="none" 
	d="
M428.983185,277.978760 
	C428.983185,277.978760 428.594391,278.186584 428.388000,278.265900 
	C428.546722,276.660583 428.911804,274.975983 429.577789,273.084351 
	C430.776062,273.445801 431.673492,274.014282 432.384888,274.937500 
	C432.145172,276.475952 432.091461,277.659698 432.037750,278.843414 
	C432.012238,279.088745 431.986725,279.334106 431.923889,279.949615 
	C430.945953,279.790222 430.005341,279.260651 429.273926,278.300873 
	C429.548584,277.508331 429.614044,277.145996 429.679504,276.783691 
	C429.576294,276.761444 429.473083,276.739197 429.369873,276.716949 
	C429.240967,277.137573 429.112091,277.558167 428.983185,277.978760 
z"/>
<path fill="#F0EDE9" opacity="1.000000" stroke="none" 
	d="
M432.396240,278.786835 
	C432.091461,277.659698 432.145172,276.475952 432.501404,275.244568 
	C432.787506,276.374695 432.771118,277.552460 432.396240,278.786835 
z"/>
<path fill="#127218" opacity="1.000000" stroke="none" 
	d="
M436.028809,259.981995 
	C436.182556,260.418060 436.297638,260.885101 436.412689,261.352173 
	C436.269867,261.086639 436.127045,260.821106 435.950806,260.317932 
	C435.917358,260.080322 435.990143,260.013000 436.028809,259.981995 
z"/>
<path fill="#128031" opacity="1.000000" stroke="none" 
	d="
M431.165710,283.065186 
	C431.327362,282.767487 431.632660,282.836792 431.789307,282.833496 
	C432.196503,284.015991 432.447052,285.201782 432.907532,287.380829 
	C431.662842,286.303833 431.149078,285.859283 430.402222,285.228790 
	C430.447418,284.482819 430.725739,283.922852 431.165710,283.065186 
z"/>
<path fill="#FFFEFE" opacity="1.000000" stroke="none" 
	d="
M409.325684,315.239197 
	C409.875366,315.450653 410.213623,315.987427 410.293182,316.787598 
	C409.727753,316.555511 409.421021,316.059998 409.325684,315.239197 
z"/>
<path fill="#FFFEFE" opacity="1.000000" stroke="none" 
	d="
M451.177582,279.198395 
	C450.745331,279.552460 450.078766,279.644409 449.412231,279.736359 
	C449.602264,279.413055 449.792328,279.089752 450.220551,278.596558 
	C450.620209,278.596497 450.781738,278.766357 451.177582,279.198395 
z"/>
<path fill="#C31C27" opacity="1.000000" stroke="none" 
	d="
M358.704895,307.043427 
	C358.963043,307.037598 358.983093,307.525635 358.998566,307.769409 
	C358.586090,307.810944 358.158173,307.608734 357.730225,307.406494 
	C357.969055,307.287415 358.207886,307.168335 358.704895,307.043427 
z"/>
<path fill="#C31C27" opacity="1.000000" stroke="none" 
	d="
M359.049072,308.178528 
	C358.983398,307.986572 359.479645,308.012695 359.727783,308.015411 
	C359.688843,308.135590 359.401794,308.253052 359.049072,308.178528 
z"/>
<path fill="#128031" opacity="1.000000" stroke="none" 
	d="
M429.010254,256.382080 
	C429.609833,257.323059 430.107025,258.600006 430.305359,259.910919 
	C429.640289,258.869263 429.274078,257.793640 429.010254,256.382080 
z"/>
<path fill="#128031" opacity="1.000000" stroke="none" 
	d="
M433.065491,258.214966 
	C433.293365,258.091095 433.556213,258.283356 433.843262,258.796997 
	C433.600800,258.932953 433.345154,258.737213 433.065491,258.214966 
z"/>
<path fill="#E06A78" opacity="1.000000" stroke="none" 
	d="
M428.994934,277.991333 
	C429.112091,277.558167 429.240967,277.137573 429.369873,276.716949 
	C429.473083,276.739197 429.576294,276.761444 429.679504,276.783691 
	C429.614044,277.145996 429.548584,277.508331 429.258728,277.947998 
	C429.034302,278.025299 429.006683,278.003906 428.994934,277.991333 
z"/>
</svg>